<svg width="350" height="200" viewBox="0 0 456 264" fill="none" xmlns="http://www.w3.org/2000/svg">
<path d="M24.9062 6.25C27.0265 6.81902 28.9597 7.93571 30.512 9.48799C32.0643 11.0403 33.181 12.9735 33.75 15.0937" stroke="#002244" stroke-width="2.5" stroke-linecap="round" stroke-linejoin="round"/>
<path d="M23.6094 11.0781C24.8846 11.4168 26.0476 12.0865 26.9805 13.0195C27.9135 13.9524 28.5832 15.1154 28.9219 16.3906" stroke="#002244" stroke-width="2.5" stroke-linecap="round" stroke-linejoin="round"/>
<path d="M14.4531 19.5C15.7394 22.1563 17.8873 24.2987 20.5469 25.5781C20.7431 25.671 20.96 25.7112 21.1765 25.6948C21.3929 25.6783 21.6013 25.6058 21.7812 25.4844L25.6875 22.875C25.8601 22.7579 26.0595 22.6865 26.2672 22.6674C26.4748 22.6483 26.6839 22.6821 26.875 22.7656L34.1875 25.9062C34.4374 26.0103 34.6462 26.1935 34.7817 26.4279C34.9173 26.6622 34.972 26.9346 34.9375 27.2031C34.7057 29.0121 33.8228 30.6746 32.4538 31.8796C31.0849 33.0847 29.3238 33.7496 27.5 33.75C21.8641 33.75 16.4591 31.5112 12.474 27.526C8.48883 23.5409 6.25 18.1358 6.25 12.5C6.25041 10.6762 6.91534 8.91512 8.12035 7.54617C9.32537 6.17723 10.9879 5.29426 12.7969 5.06249C13.0654 5.028 13.3378 5.08273 13.5721 5.21825C13.8064 5.35377 13.9897 5.56257 14.0937 5.81249L17.2344 13.1406C17.316 13.3287 17.3502 13.5339 17.3339 13.7383C17.3175 13.9426 17.2512 14.1398 17.1406 14.3125L14.5312 18.2812C14.4151 18.4607 14.3469 18.667 14.3332 18.8804C14.3195 19.0938 14.3608 19.3071 14.4531 19.5V19.5Z" stroke="#002244" stroke-width="2.5" stroke-linecap="round" stroke-linejoin="round"/>
<path d="M72.36 19.24C71.28 19.24 70.2733 19.0667 69.34 18.72C68.42 18.36 67.62 17.8533 66.94 17.2C66.26 16.5467 65.7267 15.78 65.34 14.9C64.9667 14.02 64.78 13.0533 64.78 12C64.78 10.9467 64.9667 9.98 65.34 9.1C65.7267 8.22 66.26 7.45333 66.94 6.8C67.6333 6.14667 68.44 5.64667 69.36 5.3C70.28 4.94 71.2867 4.76 72.38 4.76C73.5933 4.76 74.6867 4.97333 75.66 5.4C76.6467 5.81333 77.4733 6.42667 78.14 7.24L76.06 9.16C75.58 8.61333 75.0467 8.20667 74.46 7.94C73.8733 7.66 73.2333 7.52 72.54 7.52C71.8867 7.52 71.2867 7.62667 70.74 7.84C70.1933 8.05333 69.72 8.36 69.32 8.76C68.92 9.16 68.6067 9.63333 68.38 10.18C68.1667 10.7267 68.06 11.3333 68.06 12C68.06 12.6667 68.1667 13.2733 68.38 13.82C68.6067 14.3667 68.92 14.84 69.32 15.24C69.72 15.64 70.1933 15.9467 70.74 16.16C71.2867 16.3733 71.8867 16.48 72.54 16.48C73.2333 16.48 73.8733 16.3467 74.46 16.08C75.0467 15.8 75.58 15.38 76.06 14.82L78.14 16.74C77.4733 17.5533 76.6467 18.1733 75.66 18.6C74.6867 19.0267 73.5867 19.24 72.36 19.24ZM84.8569 19.16C83.7102 19.16 82.6902 18.92 81.7969 18.44C80.9169 17.96 80.2169 17.3067 79.6969 16.48C79.1902 15.64 78.9369 14.6867 78.9369 13.62C78.9369 12.54 79.1902 11.5867 79.6969 10.76C80.2169 9.92 80.9169 9.26667 81.7969 8.8C82.6902 8.32 83.7102 8.08 84.8569 8.08C85.9902 8.08 87.0035 8.32 87.8969 8.8C88.7902 9.26667 89.4902 9.91333 89.9969 10.74C90.5035 11.5667 90.7569 12.5267 90.7569 13.62C90.7569 14.6867 90.5035 15.64 89.9969 16.48C89.4902 17.3067 88.7902 17.96 87.8969 18.44C87.0035 18.92 85.9902 19.16 84.8569 19.16ZM84.8569 16.6C85.3769 16.6 85.8435 16.48 86.2569 16.24C86.6702 16 86.9969 15.66 87.2369 15.22C87.4769 14.7667 87.5969 14.2333 87.5969 13.62C87.5969 12.9933 87.4769 12.46 87.2369 12.02C86.9969 11.58 86.6702 11.24 86.2569 11C85.8435 10.76 85.3769 10.64 84.8569 10.64C84.3369 10.64 83.8702 10.76 83.4569 11C83.0435 11.24 82.7102 11.58 82.4569 12.02C82.2169 12.46 82.0969 12.9933 82.0969 13.62C82.0969 14.2333 82.2169 14.7667 82.4569 15.22C82.7102 15.66 83.0435 16 83.4569 16.24C83.8702 16.48 84.3369 16.6 84.8569 16.6ZM99.3823 8.08C100.236 8.08 100.996 8.25333 101.662 8.6C102.342 8.93333 102.876 9.45333 103.262 10.16C103.649 10.8533 103.842 11.7467 103.842 12.84V19H100.722V13.32C100.722 12.4533 100.529 11.8133 100.142 11.4C99.769 10.9867 99.2357 10.78 98.5423 10.78C98.049 10.78 97.6023 10.8867 97.2023 11.1C96.8157 11.3 96.509 11.6133 96.2823 12.04C96.069 12.4667 95.9623 13.0133 95.9623 13.68V19H92.8423V8.24H95.8223V11.22L95.2623 10.32C95.649 9.6 96.2023 9.04667 96.9223 8.66C97.6423 8.27333 98.4623 8.08 99.3823 8.08ZM113.21 8.08C114.064 8.08 114.824 8.25333 115.49 8.6C116.17 8.93333 116.704 9.45333 117.09 10.16C117.477 10.8533 117.67 11.7467 117.67 12.84V19H114.55V13.32C114.55 12.4533 114.357 11.8133 113.97 11.4C113.597 10.9867 113.064 10.78 112.37 10.78C111.877 10.78 111.43 10.8867 111.03 11.1C110.644 11.3 110.337 11.6133 110.11 12.04C109.897 12.4667 109.79 13.0133 109.79 13.68V19H106.67V8.24H109.65V11.22L109.09 10.32C109.477 9.6 110.03 9.04667 110.75 8.66C111.47 8.27333 112.29 8.08 113.21 8.08ZM125.917 19.16C124.69 19.16 123.61 18.92 122.677 18.44C121.757 17.96 121.043 17.3067 120.537 16.48C120.03 15.64 119.777 14.6867 119.777 13.62C119.777 12.54 120.023 11.5867 120.517 10.76C121.023 9.92 121.71 9.26667 122.577 8.8C123.443 8.32 124.423 8.08 125.517 8.08C126.57 8.08 127.517 8.30667 128.357 8.76C129.21 9.2 129.883 9.84 130.377 10.68C130.87 11.5067 131.117 12.5 131.117 13.66C131.117 13.78 131.11 13.92 131.097 14.08C131.083 14.2267 131.07 14.3667 131.057 14.5H122.317V12.68H129.417L128.217 13.22C128.217 12.66 128.103 12.1733 127.877 11.76C127.65 11.3467 127.337 11.0267 126.937 10.8C126.537 10.56 126.07 10.44 125.537 10.44C125.003 10.44 124.53 10.56 124.117 10.8C123.717 11.0267 123.403 11.3533 123.177 11.78C122.95 12.1933 122.837 12.6867 122.837 13.26V13.74C122.837 14.3267 122.963 14.8467 123.217 15.3C123.483 15.74 123.85 16.08 124.317 16.32C124.797 16.5467 125.357 16.66 125.997 16.66C126.57 16.66 127.07 16.5733 127.497 16.4C127.937 16.2267 128.337 15.9667 128.697 15.62L130.357 17.42C129.863 17.98 129.243 18.4133 128.497 18.72C127.75 19.0133 126.89 19.16 125.917 19.16ZM138.394 19.16C137.234 19.16 136.201 18.9267 135.294 18.46C134.387 17.98 133.674 17.32 133.154 16.48C132.647 15.64 132.394 14.6867 132.394 13.62C132.394 12.54 132.647 11.5867 133.154 10.76C133.674 9.92 134.387 9.26667 135.294 8.8C136.201 8.32 137.234 8.08 138.394 8.08C139.527 8.08 140.514 8.32 141.354 8.8C142.194 9.26667 142.814 9.94 143.214 10.82L140.794 12.12C140.514 11.6133 140.161 11.24 139.734 11C139.321 10.76 138.867 10.64 138.374 10.64C137.841 10.64 137.361 10.76 136.934 11C136.507 11.24 136.167 11.58 135.914 12.02C135.674 12.46 135.554 12.9933 135.554 13.62C135.554 14.2467 135.674 14.78 135.914 15.22C136.167 15.66 136.507 16 136.934 16.24C137.361 16.48 137.841 16.6 138.374 16.6C138.867 16.6 139.321 16.4867 139.734 16.26C140.161 16.02 140.514 15.64 140.794 15.12L143.214 16.44C142.814 17.3067 142.194 17.98 141.354 18.46C140.514 18.9267 139.527 19.16 138.394 19.16ZM149.567 19.16C148.3 19.16 147.313 18.84 146.607 18.2C145.9 17.5467 145.547 16.58 145.547 15.3V5.86H148.667V15.26C148.667 15.7133 148.787 16.0667 149.027 16.32C149.267 16.56 149.593 16.68 150.007 16.68C150.5 16.68 150.92 16.5467 151.267 16.28L152.107 18.48C151.787 18.7067 151.4 18.88 150.947 19C150.507 19.1067 150.047 19.16 149.567 19.16ZM143.887 10.88V8.48H151.347V10.88H143.887ZM161.982 19L158.102 8.24H161.042L164.262 17.5H162.862L166.222 8.24H168.862L172.122 17.5H170.722L174.042 8.24H176.802L172.902 19H169.882L167.022 11.06H167.942L164.982 19H161.982ZM178.253 19V8.24H181.373V19H178.253ZM179.813 6.74C179.239 6.74 178.773 6.57333 178.413 6.24C178.053 5.90667 177.873 5.49333 177.873 5C177.873 4.50667 178.053 4.09333 178.413 3.76C178.773 3.42667 179.239 3.26 179.813 3.26C180.386 3.26 180.853 3.42 181.213 3.74C181.573 4.04667 181.753 4.44667 181.753 4.94C181.753 5.46 181.573 5.89333 181.213 6.24C180.866 6.57333 180.399 6.74 179.813 6.74ZM188.668 19.16C187.401 19.16 186.415 18.84 185.708 18.2C185.001 17.5467 184.648 16.58 184.648 15.3V5.86H187.768V15.26C187.768 15.7133 187.888 16.0667 188.128 16.32C188.368 16.56 188.695 16.68 189.108 16.68C189.601 16.68 190.021 16.5467 190.368 16.28L191.208 18.48C190.888 18.7067 190.501 18.88 190.048 19C189.608 19.1067 189.148 19.16 188.668 19.16ZM182.988 10.88V8.48H190.448V10.88H182.988ZM199.5 8.08C200.353 8.08 201.113 8.25333 201.78 8.6C202.46 8.93333 202.993 9.45333 203.38 10.16C203.766 10.8533 203.96 11.7467 203.96 12.84V19H200.84V13.32C200.84 12.4533 200.646 11.8133 200.26 11.4C199.886 10.9867 199.353 10.78 198.66 10.78C198.166 10.78 197.72 10.8867 197.32 11.1C196.933 11.3 196.626 11.6133 196.4 12.04C196.186 12.4667 196.08 13.0133 196.08 13.68V19H192.96V4.16H196.08V11.22L195.38 10.32C195.766 9.6 196.32 9.04667 197.04 8.66C197.76 8.27333 198.58 8.08 199.5 8.08ZM219.052 19V16.9L218.852 16.44V12.68C218.852 12.0133 218.645 11.4933 218.232 11.12C217.832 10.7467 217.212 10.56 216.372 10.56C215.798 10.56 215.232 10.6533 214.672 10.84C214.125 11.0133 213.658 11.2533 213.272 11.56L212.152 9.38C212.738 8.96667 213.445 8.64667 214.272 8.42C215.098 8.19333 215.938 8.08 216.792 8.08C218.432 8.08 219.705 8.46667 220.612 9.24C221.518 10.0133 221.972 11.22 221.972 12.86V19H219.052ZM215.772 19.16C214.932 19.16 214.212 19.02 213.612 18.74C213.012 18.4467 212.552 18.0533 212.232 17.56C211.912 17.0667 211.752 16.5133 211.752 15.9C211.752 15.26 211.905 14.7 212.212 14.22C212.532 13.74 213.032 13.3667 213.712 13.1C214.392 12.82 215.278 12.68 216.372 12.68H219.232V14.5H216.712C215.978 14.5 215.472 14.62 215.192 14.86C214.925 15.1 214.792 15.4 214.792 15.76C214.792 16.16 214.945 16.48 215.252 16.72C215.572 16.9467 216.005 17.06 216.552 17.06C217.072 17.06 217.538 16.94 217.952 16.7C218.365 16.4467 218.665 16.08 218.852 15.6L219.332 17.04C219.105 17.7333 218.692 18.26 218.092 18.62C217.492 18.98 216.718 19.16 215.772 19.16ZM230.46 19V4.16H233.58V19H230.46ZM236.475 19V8.24H239.595V19H236.475ZM238.035 6.74C237.462 6.74 236.995 6.57333 236.635 6.24C236.275 5.90667 236.095 5.49333 236.095 5C236.095 4.50667 236.275 4.09333 236.635 3.76C236.995 3.42667 237.462 3.26 238.035 3.26C238.608 3.26 239.075 3.42 239.435 3.74C239.795 4.04667 239.975 4.44667 239.975 4.94C239.975 5.46 239.795 5.89333 239.435 6.24C239.088 6.57333 238.622 6.74 238.035 6.74ZM245.411 19L240.891 8.24H244.111L247.871 17.5H246.271L250.171 8.24H253.171L248.631 19H245.411ZM259.491 19.16C258.264 19.16 257.184 18.92 256.251 18.44C255.331 17.96 254.618 17.3067 254.111 16.48C253.604 15.64 253.351 14.6867 253.351 13.62C253.351 12.54 253.598 11.5867 254.091 10.76C254.598 9.92 255.284 9.26667 256.151 8.8C257.018 8.32 257.998 8.08 259.091 8.08C260.144 8.08 261.091 8.30667 261.931 8.76C262.784 9.2 263.458 9.84 263.951 10.68C264.444 11.5067 264.691 12.5 264.691 13.66C264.691 13.78 264.684 13.92 264.671 14.08C264.658 14.2267 264.644 14.3667 264.631 14.5H255.891V12.68H262.991L261.791 13.22C261.791 12.66 261.678 12.1733 261.451 11.76C261.224 11.3467 260.911 11.0267 260.511 10.8C260.111 10.56 259.644 10.44 259.111 10.44C258.578 10.44 258.104 10.56 257.691 10.8C257.291 11.0267 256.978 11.3533 256.751 11.78C256.524 12.1933 256.411 12.6867 256.411 13.26V13.74C256.411 14.3267 256.538 14.8467 256.791 15.3C257.058 15.74 257.424 16.08 257.891 16.32C258.371 16.5467 258.931 16.66 259.571 16.66C260.144 16.66 260.644 16.5733 261.071 16.4C261.511 16.2267 261.911 15.9667 262.271 15.62L263.931 17.42C263.438 17.98 262.818 18.4133 262.071 18.72C261.324 19.0133 260.464 19.16 259.491 19.16ZM279.032 19V16.9L278.832 16.44V12.68C278.832 12.0133 278.626 11.4933 278.212 11.12C277.812 10.7467 277.192 10.56 276.352 10.56C275.779 10.56 275.212 10.6533 274.652 10.84C274.106 11.0133 273.639 11.2533 273.252 11.56L272.132 9.38C272.719 8.96667 273.426 8.64667 274.252 8.42C275.079 8.19333 275.919 8.08 276.772 8.08C278.412 8.08 279.686 8.46667 280.592 9.24C281.499 10.0133 281.952 11.22 281.952 12.86V19H279.032ZM275.752 19.16C274.912 19.16 274.192 19.02 273.592 18.74C272.992 18.4467 272.532 18.0533 272.212 17.56C271.892 17.0667 271.732 16.5133 271.732 15.9C271.732 15.26 271.886 14.7 272.192 14.22C272.512 13.74 273.012 13.3667 273.692 13.1C274.372 12.82 275.259 12.68 276.352 12.68H279.212V14.5H276.692C275.959 14.5 275.452 14.62 275.172 14.86C274.906 15.1 274.772 15.4 274.772 15.76C274.772 16.16 274.926 16.48 275.232 16.72C275.552 16.9467 275.986 17.06 276.532 17.06C277.052 17.06 277.519 16.94 277.932 16.7C278.346 16.4467 278.646 16.08 278.832 15.6L279.312 17.04C279.086 17.7333 278.672 18.26 278.072 18.62C277.472 18.98 276.699 19.16 275.752 19.16ZM289.914 23.04C288.901 23.04 287.921 22.9133 286.974 22.66C286.041 22.42 285.261 22.0533 284.634 21.56L285.874 19.32C286.327 19.6933 286.901 19.9867 287.594 20.2C288.301 20.4267 288.994 20.54 289.674 20.54C290.781 20.54 291.581 20.2933 292.074 19.8C292.581 19.3067 292.834 18.5733 292.834 17.6V15.98L293.034 13.28L292.994 10.56V8.24H295.954V17.2C295.954 19.2 295.434 20.6733 294.394 21.62C293.354 22.5667 291.861 23.04 289.914 23.04ZM289.434 18.48C288.434 18.48 287.527 18.2667 286.714 17.84C285.914 17.4 285.267 16.7933 284.774 16.02C284.294 15.2333 284.054 14.32 284.054 13.28C284.054 12.2267 284.294 11.3133 284.774 10.54C285.267 9.75333 285.914 9.14667 286.714 8.72C287.527 8.29333 288.434 8.08 289.434 8.08C290.341 8.08 291.141 8.26667 291.834 8.64C292.527 9 293.067 9.56667 293.454 10.34C293.841 11.1 294.034 12.08 294.034 13.28C294.034 14.4667 293.841 15.4467 293.454 16.22C293.067 16.98 292.527 17.5467 291.834 17.92C291.141 18.2933 290.341 18.48 289.434 18.48ZM290.054 15.92C290.601 15.92 291.087 15.8133 291.514 15.6C291.941 15.3733 292.274 15.06 292.514 14.66C292.754 14.26 292.874 13.8 292.874 13.28C292.874 12.7467 292.754 12.2867 292.514 11.9C292.274 11.5 291.941 11.1933 291.514 10.98C291.087 10.7533 290.601 10.64 290.054 10.64C289.507 10.64 289.021 10.7533 288.594 10.98C288.167 11.1933 287.827 11.5 287.574 11.9C287.334 12.2867 287.214 12.7467 287.214 13.28C287.214 13.8 287.334 14.26 287.574 14.66C287.827 15.06 288.167 15.3733 288.594 15.6C289.021 15.8133 289.507 15.92 290.054 15.92ZM304.198 19.16C302.971 19.16 301.891 18.92 300.958 18.44C300.038 17.96 299.325 17.3067 298.818 16.48C298.311 15.64 298.058 14.6867 298.058 13.62C298.058 12.54 298.305 11.5867 298.798 10.76C299.305 9.92 299.991 9.26667 300.858 8.8C301.725 8.32 302.705 8.08 303.798 8.08C304.851 8.08 305.798 8.30667 306.638 8.76C307.491 9.2 308.165 9.84 308.658 10.68C309.151 11.5067 309.398 12.5 309.398 13.66C309.398 13.78 309.391 13.92 309.378 14.08C309.365 14.2267 309.351 14.3667 309.338 14.5H300.598V12.68H307.698L306.498 13.22C306.498 12.66 306.385 12.1733 306.158 11.76C305.931 11.3467 305.618 11.0267 305.218 10.8C304.818 10.56 304.351 10.44 303.818 10.44C303.285 10.44 302.811 10.56 302.398 10.8C301.998 11.0267 301.685 11.3533 301.458 11.78C301.231 12.1933 301.118 12.6867 301.118 13.26V13.74C301.118 14.3267 301.245 14.8467 301.498 15.3C301.765 15.74 302.131 16.08 302.598 16.32C303.078 16.5467 303.638 16.66 304.278 16.66C304.851 16.66 305.351 16.5733 305.778 16.4C306.218 16.2267 306.618 15.9667 306.978 15.62L308.638 17.42C308.145 17.98 307.525 18.4133 306.778 18.72C306.031 19.0133 305.171 19.16 304.198 19.16ZM318.015 8.08C318.868 8.08 319.628 8.25333 320.295 8.6C320.975 8.93333 321.508 9.45333 321.895 10.16C322.282 10.8533 322.475 11.7467 322.475 12.84V19H319.355V13.32C319.355 12.4533 319.162 11.8133 318.775 11.4C318.402 10.9867 317.868 10.78 317.175 10.78C316.682 10.78 316.235 10.8867 315.835 11.1C315.448 11.3 315.142 11.6133 314.915 12.04C314.702 12.4667 314.595 13.0133 314.595 13.68V19H311.475V8.24H314.455V11.22L313.895 10.32C314.282 9.6 314.835 9.04667 315.555 8.66C316.275 8.27333 317.095 8.08 318.015 8.08ZM329.703 19.16C328.437 19.16 327.45 18.84 326.743 18.2C326.037 17.5467 325.683 16.58 325.683 15.3V5.86H328.803V15.26C328.803 15.7133 328.923 16.0667 329.163 16.32C329.403 16.56 329.73 16.68 330.143 16.68C330.637 16.68 331.057 16.5467 331.403 16.28L332.243 18.48C331.923 18.7067 331.537 18.88 331.083 19C330.643 19.1067 330.183 19.16 329.703 19.16ZM324.023 10.88V8.48H331.483V10.88H324.023Z" fill="#002244"/>
<line x1="-5.03022e-08" y1="63.5001" x2="408" y2="63.5" stroke="#DDE0E2"/>
<path d="M34.375 139.5V144.5C34.375 144.832 34.2433 145.15 34.0089 145.384C33.7745 145.618 33.4565 145.75 33.125 145.75H29.375C29.0435 145.75 28.7255 145.618 28.4911 145.384C28.2567 145.15 28.125 144.832 28.125 144.5V139.5" stroke="#002244" stroke-width="2.5" stroke-linecap="round" stroke-linejoin="round"/>
<path d="M11.875 139.5V144.5C11.875 144.832 11.7433 145.15 11.5089 145.384C11.2745 145.618 10.9565 145.75 10.625 145.75H6.875C6.54348 145.75 6.22554 145.618 5.99112 145.384C5.7567 145.15 5.625 144.832 5.625 144.5V139.5" stroke="#002244" stroke-width="2.5" stroke-linecap="round" stroke-linejoin="round"/>
<path d="M2.5 127H37.5" stroke="#002244" stroke-width="2.5" stroke-linecap="round" stroke-linejoin="round"/>
<path d="M22.5 132V139.5" stroke="#002244" stroke-width="2.5" stroke-linecap="round" stroke-linejoin="round"/>
<path d="M17.5 132V139.5" stroke="#002244" stroke-width="2.5" stroke-linecap="round" stroke-linejoin="round"/>
<path d="M34.375 139.5H5.625V127L6.71875 119.328C6.76015 119.03 6.90781 118.757 7.13459 118.559C7.36137 118.361 7.65203 118.251 7.95313 118.25H32.0469C32.348 118.251 32.6386 118.361 32.8654 118.559C33.0922 118.757 33.2398 119.03 33.2812 119.328L34.375 127V139.5Z" stroke="#002244" stroke-width="2.5" stroke-linecap="round" stroke-linejoin="round"/>
<path d="M11.25 134.5C12.2855 134.5 13.125 133.661 13.125 132.625C13.125 131.59 12.2855 130.75 11.25 130.75C10.2145 130.75 9.375 131.59 9.375 132.625C9.375 133.661 10.2145 134.5 11.25 134.5Z" fill="#002244"/>
<path d="M28.75 134.5C29.7855 134.5 30.625 133.661 30.625 132.625C30.625 131.59 29.7855 130.75 28.75 130.75C27.7145 130.75 26.875 131.59 26.875 132.625C26.875 133.661 27.7145 134.5 28.75 134.5Z" fill="#002244"/>
<path d="M68.56 131V119.64H64.08V117H76.28V119.64H71.8V131H68.56ZM77.5689 131V120.24H80.5489V123.28L80.1289 122.4C80.4489 121.64 80.9622 121.067 81.6689 120.68C82.3756 120.28 83.2356 120.08 84.2489 120.08V122.96C84.1156 122.947 83.9956 122.94 83.8889 122.94C83.7822 122.927 83.6689 122.92 83.5489 122.92C82.6956 122.92 82.0022 123.167 81.4689 123.66C80.9489 124.14 80.6889 124.893 80.6889 125.92V131H77.5689ZM90.7222 131.16C89.8289 131.16 89.0289 130.987 88.3222 130.64C87.6289 130.293 87.0889 129.767 86.7022 129.06C86.3155 128.34 86.1222 127.427 86.1222 126.32V120.24H89.2422V125.86C89.2422 126.753 89.4289 127.413 89.8022 127.84C90.1889 128.253 90.7289 128.46 91.4222 128.46C91.9022 128.46 92.3289 128.36 92.7022 128.16C93.0755 127.947 93.3689 127.627 93.5822 127.2C93.7955 126.76 93.9022 126.213 93.9022 125.56V120.24H97.0222V131H94.0622V128.04L94.6022 128.9C94.2422 129.647 93.7089 130.213 93.0022 130.6C92.3089 130.973 91.5489 131.16 90.7222 131.16ZM105.113 131.16C103.953 131.16 102.919 130.927 102.013 130.46C101.106 129.98 100.393 129.32 99.8727 128.48C99.366 127.64 99.1127 126.687 99.1127 125.62C99.1127 124.54 99.366 123.587 99.8727 122.76C100.393 121.92 101.106 121.267 102.013 120.8C102.919 120.32 103.953 120.08 105.113 120.08C106.246 120.08 107.233 120.32 108.073 120.8C108.913 121.267 109.533 121.94 109.933 122.82L107.513 124.12C107.233 123.613 106.879 123.24 106.453 123C106.039 122.76 105.586 122.64 105.093 122.64C104.559 122.64 104.079 122.76 103.653 123C103.226 123.24 102.886 123.58 102.633 124.02C102.393 124.46 102.273 124.993 102.273 125.62C102.273 126.247 102.393 126.78 102.633 127.22C102.886 127.66 103.226 128 103.653 128.24C104.079 128.48 104.559 128.6 105.093 128.6C105.586 128.6 106.039 128.487 106.453 128.26C106.879 128.02 107.233 127.64 107.513 127.12L109.933 128.44C109.533 129.307 108.913 129.98 108.073 130.46C107.233 130.927 106.246 131.16 105.113 131.16ZM114.25 128.8L114.33 125L119.35 120.24H123.07L118.25 125.14L116.63 126.46L114.25 128.8ZM111.67 131V116.16H114.79V131H111.67ZM119.69 131L116.05 126.48L118.01 124.06L123.47 131H119.69ZM124.874 131V120.24H127.994V131H124.874ZM126.434 118.74C125.86 118.74 125.394 118.573 125.034 118.24C124.674 117.907 124.494 117.493 124.494 117C124.494 116.507 124.674 116.093 125.034 115.76C125.394 115.427 125.86 115.26 126.434 115.26C127.007 115.26 127.474 115.42 127.834 115.74C128.194 116.047 128.374 116.447 128.374 116.94C128.374 117.46 128.194 117.893 127.834 118.24C127.487 118.573 127.02 118.74 126.434 118.74ZM137.429 120.08C138.283 120.08 139.043 120.253 139.709 120.6C140.389 120.933 140.923 121.453 141.309 122.16C141.696 122.853 141.889 123.747 141.889 124.84V131H138.769V125.32C138.769 124.453 138.576 123.813 138.189 123.4C137.816 122.987 137.283 122.78 136.589 122.78C136.096 122.78 135.649 122.887 135.249 123.1C134.863 123.3 134.556 123.613 134.329 124.04C134.116 124.467 134.009 125.013 134.009 125.68V131H130.889V120.24H133.869V123.22L133.309 122.32C133.696 121.6 134.249 121.047 134.969 120.66C135.689 120.273 136.509 120.08 137.429 120.08ZM149.855 135.04C148.842 135.04 147.862 134.913 146.915 134.66C145.982 134.42 145.202 134.053 144.575 133.56L145.815 131.32C146.269 131.693 146.842 131.987 147.535 132.2C148.242 132.427 148.935 132.54 149.615 132.54C150.722 132.54 151.522 132.293 152.015 131.8C152.522 131.307 152.775 130.573 152.775 129.6V127.98L152.975 125.28L152.935 122.56V120.24H155.895V129.2C155.895 131.2 155.375 132.673 154.335 133.62C153.295 134.567 151.802 135.04 149.855 135.04ZM149.375 130.48C148.375 130.48 147.469 130.267 146.655 129.84C145.855 129.4 145.209 128.793 144.715 128.02C144.235 127.233 143.995 126.32 143.995 125.28C143.995 124.227 144.235 123.313 144.715 122.54C145.209 121.753 145.855 121.147 146.655 120.72C147.469 120.293 148.375 120.08 149.375 120.08C150.282 120.08 151.082 120.267 151.775 120.64C152.469 121 153.009 121.567 153.395 122.34C153.782 123.1 153.975 124.08 153.975 125.28C153.975 126.467 153.782 127.447 153.395 128.22C153.009 128.98 152.469 129.547 151.775 129.92C151.082 130.293 150.282 130.48 149.375 130.48ZM149.995 127.92C150.542 127.92 151.029 127.813 151.455 127.6C151.882 127.373 152.215 127.06 152.455 126.66C152.695 126.26 152.815 125.8 152.815 125.28C152.815 124.747 152.695 124.287 152.455 123.9C152.215 123.5 151.882 123.193 151.455 122.98C151.029 122.753 150.542 122.64 149.995 122.64C149.449 122.64 148.962 122.753 148.535 122.98C148.109 123.193 147.769 123.5 147.515 123.9C147.275 124.287 147.155 124.747 147.155 125.28C147.155 125.8 147.275 126.26 147.515 126.66C147.769 127.06 148.109 127.373 148.535 127.6C148.962 127.813 149.449 127.92 149.995 127.92ZM164.463 131V120.24H167.583V131H164.463ZM166.023 118.74C165.45 118.74 164.983 118.573 164.623 118.24C164.263 117.907 164.083 117.493 164.083 117C164.083 116.507 164.263 116.093 164.623 115.76C164.983 115.427 165.45 115.26 166.023 115.26C166.597 115.26 167.063 115.42 167.423 115.74C167.783 116.047 167.963 116.447 167.963 116.94C167.963 117.46 167.783 117.893 167.423 118.24C167.077 118.573 166.61 118.74 166.023 118.74ZM177.019 120.08C177.872 120.08 178.632 120.253 179.299 120.6C179.979 120.933 180.512 121.453 180.899 122.16C181.286 122.853 181.479 123.747 181.479 124.84V131H178.359V125.32C178.359 124.453 178.166 123.813 177.779 123.4C177.406 122.987 176.872 122.78 176.179 122.78C175.686 122.78 175.239 122.887 174.839 123.1C174.452 123.3 174.146 123.613 173.919 124.04C173.706 124.467 173.599 125.013 173.599 125.68V131H170.479V120.24H173.459V123.22L172.899 122.32C173.286 121.6 173.839 121.047 174.559 120.66C175.279 120.273 176.099 120.08 177.019 120.08ZM189.005 131.16C187.992 131.16 187.079 130.933 186.265 130.48C185.452 130.013 184.805 129.367 184.325 128.54C183.859 127.713 183.625 126.74 183.625 125.62C183.625 124.487 183.859 123.507 184.325 122.68C184.805 121.853 185.452 121.213 186.265 120.76C187.079 120.307 187.992 120.08 189.005 120.08C189.912 120.08 190.705 120.28 191.385 120.68C192.065 121.08 192.592 121.687 192.965 122.5C193.339 123.313 193.525 124.353 193.525 125.62C193.525 126.873 193.345 127.913 192.985 128.74C192.625 129.553 192.105 130.16 191.425 130.56C190.759 130.96 189.952 131.16 189.005 131.16ZM189.545 128.6C190.052 128.6 190.512 128.48 190.925 128.24C191.339 128 191.665 127.66 191.905 127.22C192.159 126.767 192.285 126.233 192.285 125.62C192.285 124.993 192.159 124.46 191.905 124.02C191.665 123.58 191.339 123.24 190.925 123C190.512 122.76 190.052 122.64 189.545 122.64C189.025 122.64 188.559 122.76 188.145 123C187.732 123.24 187.399 123.58 187.145 124.02C186.905 124.46 186.785 124.993 186.785 125.62C186.785 126.233 186.905 126.767 187.145 127.22C187.399 127.66 187.732 128 188.145 128.24C188.559 128.48 189.025 128.6 189.545 128.6ZM192.365 131V128.8L192.425 125.6L192.225 122.42V116.16H195.345V131H192.365ZM202.773 131.16C201.88 131.16 201.08 130.987 200.373 130.64C199.68 130.293 199.14 129.767 198.753 129.06C198.366 128.34 198.173 127.427 198.173 126.32V120.24H201.293V125.86C201.293 126.753 201.48 127.413 201.853 127.84C202.24 128.253 202.78 128.46 203.473 128.46C203.953 128.46 204.38 128.36 204.753 128.16C205.126 127.947 205.42 127.627 205.633 127.2C205.846 126.76 205.953 126.213 205.953 125.56V120.24H209.073V131H206.113V128.04L206.653 128.9C206.293 129.647 205.76 130.213 205.053 130.6C204.36 130.973 203.6 131.16 202.773 131.16ZM215.583 131.16C214.663 131.16 213.777 131.053 212.923 130.84C212.083 130.613 211.417 130.333 210.923 130L211.963 127.76C212.457 128.067 213.037 128.32 213.703 128.52C214.383 128.707 215.05 128.8 215.703 128.8C216.423 128.8 216.93 128.713 217.223 128.54C217.53 128.367 217.683 128.127 217.683 127.82C217.683 127.567 217.563 127.38 217.323 127.26C217.097 127.127 216.79 127.027 216.403 126.96C216.017 126.893 215.59 126.827 215.123 126.76C214.67 126.693 214.21 126.607 213.743 126.5C213.277 126.38 212.85 126.207 212.463 125.98C212.077 125.753 211.763 125.447 211.523 125.06C211.297 124.673 211.183 124.173 211.183 123.56C211.183 122.88 211.377 122.28 211.763 121.76C212.163 121.24 212.737 120.833 213.483 120.54C214.23 120.233 215.123 120.08 216.163 120.08C216.897 120.08 217.643 120.16 218.403 120.32C219.163 120.48 219.797 120.713 220.303 121.02L219.263 123.24C218.743 122.933 218.217 122.727 217.683 122.62C217.163 122.5 216.657 122.44 216.163 122.44C215.47 122.44 214.963 122.533 214.643 122.72C214.323 122.907 214.163 123.147 214.163 123.44C214.163 123.707 214.277 123.907 214.503 124.04C214.743 124.173 215.057 124.28 215.443 124.36C215.83 124.44 216.25 124.513 216.703 124.58C217.17 124.633 217.637 124.72 218.103 124.84C218.57 124.96 218.99 125.133 219.363 125.36C219.75 125.573 220.063 125.873 220.303 126.26C220.543 126.633 220.663 127.127 220.663 127.74C220.663 128.407 220.463 129 220.063 129.52C219.663 130.027 219.083 130.427 218.323 130.72C217.577 131.013 216.663 131.16 215.583 131.16ZM226.988 131.16C225.722 131.16 224.735 130.84 224.028 130.2C223.322 129.547 222.968 128.58 222.968 127.3V117.86H226.088V127.26C226.088 127.713 226.208 128.067 226.448 128.32C226.688 128.56 227.015 128.68 227.428 128.68C227.922 128.68 228.342 128.547 228.688 128.28L229.528 130.48C229.208 130.707 228.822 130.88 228.368 131C227.928 131.107 227.468 131.16 226.988 131.16ZM221.308 122.88V120.48H228.768V122.88H221.308ZM231.28 131V120.24H234.26V123.28L233.84 122.4C234.16 121.64 234.673 121.067 235.38 120.68C236.087 120.28 236.947 120.08 237.96 120.08V122.96C237.827 122.947 237.707 122.94 237.6 122.94C237.493 122.927 237.38 122.92 237.26 122.92C236.407 122.92 235.713 123.167 235.18 123.66C234.66 124.14 234.4 124.893 234.4 125.92V131H231.28ZM241.546 135.04C240.986 135.04 240.433 134.953 239.886 134.78C239.339 134.607 238.893 134.367 238.546 134.06L239.686 131.84C239.926 132.053 240.199 132.22 240.506 132.34C240.826 132.46 241.139 132.52 241.446 132.52C241.886 132.52 242.233 132.413 242.486 132.2C242.753 132 242.993 131.66 243.206 131.18L243.766 129.86L244.006 129.52L247.866 120.24H250.866L246.006 131.66C245.659 132.527 245.259 133.207 244.806 133.7C244.366 134.193 243.873 134.54 243.326 134.74C242.793 134.94 242.199 135.04 241.546 135.04ZM243.386 131.42L238.586 120.24H241.806L245.526 129.24L243.386 131.42ZM263.143 131.16C261.917 131.16 260.837 130.92 259.903 130.44C258.983 129.96 258.27 129.307 257.763 128.48C257.257 127.64 257.003 126.687 257.003 125.62C257.003 124.54 257.25 123.587 257.743 122.76C258.25 121.92 258.937 121.267 259.803 120.8C260.67 120.32 261.65 120.08 262.743 120.08C263.797 120.08 264.743 120.307 265.583 120.76C266.437 121.2 267.11 121.84 267.603 122.68C268.097 123.507 268.343 124.5 268.343 125.66C268.343 125.78 268.337 125.92 268.323 126.08C268.31 126.227 268.297 126.367 268.283 126.5H259.543V124.68H266.643L265.443 125.22C265.443 124.66 265.33 124.173 265.103 123.76C264.877 123.347 264.563 123.027 264.163 122.8C263.763 122.56 263.297 122.44 262.763 122.44C262.23 122.44 261.757 122.56 261.343 122.8C260.943 123.027 260.63 123.353 260.403 123.78C260.177 124.193 260.063 124.687 260.063 125.26V125.74C260.063 126.327 260.19 126.847 260.443 127.3C260.71 127.74 261.077 128.08 261.543 128.32C262.023 128.547 262.583 128.66 263.223 128.66C263.797 128.66 264.297 128.573 264.723 128.4C265.163 128.227 265.563 127.967 265.923 127.62L267.583 129.42C267.09 129.98 266.47 130.413 265.723 130.72C264.977 131.013 264.117 131.16 263.143 131.16ZM274.04 131.16C273.12 131.16 272.234 131.053 271.38 130.84C270.54 130.613 269.874 130.333 269.38 130L270.42 127.76C270.914 128.067 271.494 128.32 272.16 128.52C272.84 128.707 273.507 128.8 274.16 128.8C274.88 128.8 275.387 128.713 275.68 128.54C275.987 128.367 276.14 128.127 276.14 127.82C276.14 127.567 276.02 127.38 275.78 127.26C275.554 127.127 275.247 127.027 274.86 126.96C274.474 126.893 274.047 126.827 273.58 126.76C273.127 126.693 272.667 126.607 272.2 126.5C271.734 126.38 271.307 126.207 270.92 125.98C270.534 125.753 270.22 125.447 269.98 125.06C269.754 124.673 269.64 124.173 269.64 123.56C269.64 122.88 269.834 122.28 270.22 121.76C270.62 121.24 271.194 120.833 271.94 120.54C272.687 120.233 273.58 120.08 274.62 120.08C275.354 120.08 276.1 120.16 276.86 120.32C277.62 120.48 278.254 120.713 278.76 121.02L277.72 123.24C277.2 122.933 276.674 122.727 276.14 122.62C275.62 122.5 275.114 122.44 274.62 122.44C273.927 122.44 273.42 122.533 273.1 122.72C272.78 122.907 272.62 123.147 272.62 123.44C272.62 123.707 272.734 123.907 272.96 124.04C273.2 124.173 273.514 124.28 273.9 124.36C274.287 124.44 274.707 124.513 275.16 124.58C275.627 124.633 276.094 124.72 276.56 124.84C277.027 124.96 277.447 125.133 277.82 125.36C278.207 125.573 278.52 125.873 278.76 126.26C279 126.633 279.12 127.127 279.12 127.74C279.12 128.407 278.92 129 278.52 129.52C278.12 130.027 277.54 130.427 276.78 130.72C276.034 131.013 275.12 131.16 274.04 131.16ZM287.405 131.16C286.499 131.16 285.705 130.96 285.025 130.56C284.345 130.16 283.812 129.553 283.425 128.74C283.052 127.913 282.865 126.873 282.865 125.62C282.865 124.353 283.045 123.313 283.405 122.5C283.765 121.687 284.285 121.08 284.965 120.68C285.645 120.28 286.459 120.08 287.405 120.08C288.419 120.08 289.325 120.313 290.125 120.78C290.939 121.233 291.579 121.873 292.045 122.7C292.525 123.527 292.765 124.5 292.765 125.62C292.765 126.753 292.525 127.733 292.045 128.56C291.579 129.387 290.939 130.027 290.125 130.48C289.325 130.933 288.419 131.16 287.405 131.16ZM281.045 134.88V120.24H284.025V122.44L283.965 125.64L284.165 128.82V134.88H281.045ZM286.865 128.6C287.385 128.6 287.845 128.48 288.245 128.24C288.659 128 288.985 127.66 289.225 127.22C289.479 126.767 289.605 126.233 289.605 125.62C289.605 124.993 289.479 124.46 289.225 124.02C288.985 123.58 288.659 123.24 288.245 123C287.845 122.76 287.385 122.64 286.865 122.64C286.345 122.64 285.879 122.76 285.465 123C285.052 123.24 284.725 123.58 284.485 124.02C284.245 124.46 284.125 124.993 284.125 125.62C284.125 126.233 284.245 126.767 284.485 127.22C284.725 127.66 285.052 128 285.465 128.24C285.879 128.48 286.345 128.6 286.865 128.6ZM300.194 131.16C298.967 131.16 297.887 130.92 296.954 130.44C296.034 129.96 295.321 129.307 294.814 128.48C294.307 127.64 294.054 126.687 294.054 125.62C294.054 124.54 294.301 123.587 294.794 122.76C295.301 121.92 295.987 121.267 296.854 120.8C297.721 120.32 298.701 120.08 299.794 120.08C300.847 120.08 301.794 120.307 302.634 120.76C303.487 121.2 304.161 121.84 304.654 122.68C305.147 123.507 305.394 124.5 305.394 125.66C305.394 125.78 305.387 125.92 305.374 126.08C305.361 126.227 305.347 126.367 305.334 126.5H296.594V124.68H303.694L302.494 125.22C302.494 124.66 302.381 124.173 302.154 123.76C301.927 123.347 301.614 123.027 301.214 122.8C300.814 122.56 300.347 122.44 299.814 122.44C299.281 122.44 298.807 122.56 298.394 122.8C297.994 123.027 297.681 123.353 297.454 123.78C297.227 124.193 297.114 124.687 297.114 125.26V125.74C297.114 126.327 297.241 126.847 297.494 127.3C297.761 127.74 298.127 128.08 298.594 128.32C299.074 128.547 299.634 128.66 300.274 128.66C300.847 128.66 301.347 128.573 301.774 128.4C302.214 128.227 302.614 127.967 302.974 127.62L304.634 129.42C304.141 129.98 303.521 130.413 302.774 130.72C302.027 131.013 301.167 131.16 300.194 131.16ZM312.671 131.16C311.511 131.16 310.478 130.927 309.571 130.46C308.665 129.98 307.951 129.32 307.431 128.48C306.925 127.64 306.671 126.687 306.671 125.62C306.671 124.54 306.925 123.587 307.431 122.76C307.951 121.92 308.665 121.267 309.571 120.8C310.478 120.32 311.511 120.08 312.671 120.08C313.805 120.08 314.791 120.32 315.631 120.8C316.471 121.267 317.091 121.94 317.491 122.82L315.071 124.12C314.791 123.613 314.438 123.24 314.011 123C313.598 122.76 313.145 122.64 312.651 122.64C312.118 122.64 311.638 122.76 311.211 123C310.785 123.24 310.445 123.58 310.191 124.02C309.951 124.46 309.831 124.993 309.831 125.62C309.831 126.247 309.951 126.78 310.191 127.22C310.445 127.66 310.785 128 311.211 128.24C311.638 128.48 312.118 128.6 312.651 128.6C313.145 128.6 313.598 128.487 314.011 128.26C314.438 128.02 314.791 127.64 315.071 127.12L317.491 128.44C317.091 129.307 316.471 129.98 315.631 130.46C314.791 130.927 313.805 131.16 312.671 131.16ZM319.229 131V120.24H322.349V131H319.229ZM320.789 118.74C320.216 118.74 319.749 118.573 319.389 118.24C319.029 117.907 318.849 117.493 318.849 117C318.849 116.507 319.029 116.093 319.389 115.76C319.749 115.427 320.216 115.26 320.789 115.26C321.362 115.26 321.829 115.42 322.189 115.74C322.549 116.047 322.729 116.447 322.729 116.94C322.729 117.46 322.549 117.893 322.189 118.24C321.842 118.573 321.376 118.74 320.789 118.74ZM331.845 131V128.9L331.645 128.44V124.68C331.645 124.013 331.438 123.493 331.025 123.12C330.625 122.747 330.005 122.56 329.165 122.56C328.591 122.56 328.025 122.653 327.465 122.84C326.918 123.013 326.451 123.253 326.065 123.56L324.945 121.38C325.531 120.967 326.238 120.647 327.065 120.42C327.891 120.193 328.731 120.08 329.585 120.08C331.225 120.08 332.498 120.467 333.405 121.24C334.311 122.013 334.765 123.22 334.765 124.86V131H331.845ZM328.565 131.16C327.725 131.16 327.005 131.02 326.405 130.74C325.805 130.447 325.345 130.053 325.025 129.56C324.705 129.067 324.545 128.513 324.545 127.9C324.545 127.26 324.698 126.7 325.005 126.22C325.325 125.74 325.825 125.367 326.505 125.1C327.185 124.82 328.071 124.68 329.165 124.68H332.025V126.5H329.505C328.771 126.5 328.265 126.62 327.985 126.86C327.718 127.1 327.585 127.4 327.585 127.76C327.585 128.16 327.738 128.48 328.045 128.72C328.365 128.947 328.798 129.06 329.345 129.06C329.865 129.06 330.331 128.94 330.745 128.7C331.158 128.447 331.458 128.08 331.645 127.6L332.125 129.04C331.898 129.733 331.485 130.26 330.885 130.62C330.285 130.98 329.511 131.16 328.565 131.16ZM337.588 131V116.16H340.708V131H337.588ZM343.604 131V120.24H346.724V131H343.604ZM345.164 118.74C344.591 118.74 344.124 118.573 343.764 118.24C343.404 117.907 343.224 117.493 343.224 117C343.224 116.507 343.404 116.093 343.764 115.76C344.124 115.427 344.591 115.26 345.164 115.26C345.737 115.26 346.204 115.42 346.564 115.74C346.924 116.047 347.104 116.447 347.104 116.94C347.104 117.46 346.924 117.893 346.564 118.24C346.217 118.573 345.751 118.74 345.164 118.74ZM353.24 131.16C352.32 131.16 351.433 131.053 350.58 130.84C349.74 130.613 349.073 130.333 348.58 130L349.62 127.76C350.113 128.067 350.693 128.32 351.36 128.52C352.04 128.707 352.706 128.8 353.36 128.8C354.08 128.8 354.586 128.713 354.88 128.54C355.186 128.367 355.34 128.127 355.34 127.82C355.34 127.567 355.22 127.38 354.98 127.26C354.753 127.127 354.446 127.027 354.06 126.96C353.673 126.893 353.246 126.827 352.78 126.76C352.326 126.693 351.866 126.607 351.4 126.5C350.933 126.38 350.506 126.207 350.12 125.98C349.733 125.753 349.42 125.447 349.18 125.06C348.953 124.673 348.84 124.173 348.84 123.56C348.84 122.88 349.033 122.28 349.42 121.76C349.82 121.24 350.393 120.833 351.14 120.54C351.886 120.233 352.78 120.08 353.82 120.08C354.553 120.08 355.3 120.16 356.06 120.32C356.82 120.48 357.453 120.713 357.96 121.02L356.92 123.24C356.4 122.933 355.873 122.727 355.34 122.62C354.82 122.5 354.313 122.44 353.82 122.44C353.126 122.44 352.62 122.533 352.3 122.72C351.98 122.907 351.82 123.147 351.82 123.44C351.82 123.707 351.933 123.907 352.16 124.04C352.4 124.173 352.713 124.28 353.1 124.36C353.486 124.44 353.906 124.513 354.36 124.58C354.826 124.633 355.293 124.72 355.76 124.84C356.226 124.96 356.646 125.133 357.02 125.36C357.406 125.573 357.72 125.873 357.96 126.26C358.2 126.633 358.32 127.127 358.32 127.74C358.32 128.407 358.12 129 357.72 129.52C357.32 130.027 356.74 130.427 355.98 130.72C355.233 131.013 354.32 131.16 353.24 131.16ZM364.645 131.16C363.378 131.16 362.391 130.84 361.685 130.2C360.978 129.547 360.625 128.58 360.625 127.3V117.86H363.745V127.26C363.745 127.713 363.865 128.067 364.105 128.32C364.345 128.56 364.671 128.68 365.085 128.68C365.578 128.68 365.998 128.547 366.345 128.28L367.185 130.48C366.865 130.707 366.478 130.88 366.025 131C365.585 131.107 365.125 131.16 364.645 131.16ZM358.965 122.88V120.48H366.425V122.88H358.965ZM372.556 131.16C371.636 131.16 370.749 131.053 369.896 130.84C369.056 130.613 368.389 130.333 367.896 130L368.936 127.76C369.429 128.067 370.009 128.32 370.676 128.52C371.356 128.707 372.023 128.8 372.676 128.8C373.396 128.8 373.903 128.713 374.196 128.54C374.503 128.367 374.656 128.127 374.656 127.82C374.656 127.567 374.536 127.38 374.296 127.26C374.069 127.127 373.763 127.027 373.376 126.96C372.989 126.893 372.563 126.827 372.096 126.76C371.643 126.693 371.183 126.607 370.716 126.5C370.249 126.38 369.823 126.207 369.436 125.98C369.049 125.753 368.736 125.447 368.496 125.06C368.269 124.673 368.156 124.173 368.156 123.56C368.156 122.88 368.349 122.28 368.736 121.76C369.136 121.24 369.709 120.833 370.456 120.54C371.203 120.233 372.096 120.08 373.136 120.08C373.869 120.08 374.616 120.16 375.376 120.32C376.136 120.48 376.769 120.713 377.276 121.02L376.236 123.24C375.716 122.933 375.189 122.727 374.656 122.62C374.136 122.5 373.629 122.44 373.136 122.44C372.443 122.44 371.936 122.533 371.616 122.72C371.296 122.907 371.136 123.147 371.136 123.44C371.136 123.707 371.249 123.907 371.476 124.04C371.716 124.173 372.029 124.28 372.416 124.36C372.803 124.44 373.223 124.513 373.676 124.58C374.143 124.633 374.609 124.72 375.076 124.84C375.543 124.96 375.963 125.133 376.336 125.36C376.723 125.573 377.036 125.873 377.276 126.26C377.516 126.633 377.636 127.127 377.636 127.74C377.636 128.407 377.436 129 377.036 129.52C376.636 130.027 376.056 130.427 375.296 130.72C374.549 131.013 373.636 131.16 372.556 131.16Z" fill="#002244"/>
<line x1="-5.03022e-08" y1="175.5" x2="408" y2="175.5" stroke="#DDE0E2"/>
<path d="M20 227.75V260.25" stroke="#002244" stroke-width="2.5" stroke-linecap="round" stroke-linejoin="round"/>
<path d="M28.75 237.75C28.75 236.929 28.5883 236.117 28.2742 235.358C27.9602 234.6 27.4998 233.911 26.9194 233.331C26.3391 232.75 25.6501 232.29 24.8918 231.976C24.1335 231.662 23.3208 231.5 22.5 231.5H16.875C15.2174 231.5 13.6277 232.159 12.4556 233.331C11.2835 234.503 10.625 236.093 10.625 237.75C10.625 239.408 11.2835 240.997 12.4556 242.17C13.6277 243.342 15.2174 244 16.875 244H23.75C25.4076 244 26.9973 244.659 28.1694 245.831C29.3415 247.003 30 248.593 30 250.25C30 251.908 29.3415 253.497 28.1694 254.67C26.9973 255.842 25.4076 256.5 23.75 256.5H16.25C14.5924 256.5 13.0027 255.842 11.8306 254.67C10.6585 253.497 10 251.908 10 250.25" stroke="#002244" stroke-width="2.5" stroke-linecap="round" stroke-linejoin="round"/>
<path d="M72.36 243.24C71.28 243.24 70.2733 243.067 69.34 242.72C68.42 242.36 67.62 241.853 66.94 241.2C66.26 240.547 65.7267 239.78 65.34 238.9C64.9667 238.02 64.78 237.053 64.78 236C64.78 234.947 64.9667 233.98 65.34 233.1C65.7267 232.22 66.26 231.453 66.94 230.8C67.6333 230.147 68.44 229.647 69.36 229.3C70.28 228.94 71.2867 228.76 72.38 228.76C73.5933 228.76 74.6867 228.973 75.66 229.4C76.6467 229.813 77.4733 230.427 78.14 231.24L76.06 233.16C75.58 232.613 75.0467 232.207 74.46 231.94C73.8733 231.66 73.2333 231.52 72.54 231.52C71.8867 231.52 71.2867 231.627 70.74 231.84C70.1933 232.053 69.72 232.36 69.32 232.76C68.92 233.16 68.6067 233.633 68.38 234.18C68.1667 234.727 68.06 235.333 68.06 236C68.06 236.667 68.1667 237.273 68.38 237.82C68.6067 238.367 68.92 238.84 69.32 239.24C69.72 239.64 70.1933 239.947 70.74 240.16C71.2867 240.373 71.8867 240.48 72.54 240.48C73.2333 240.48 73.8733 240.347 74.46 240.08C75.0467 239.8 75.58 239.38 76.06 238.82L78.14 240.74C77.4733 241.553 76.6467 242.173 75.66 242.6C74.6867 243.027 73.5867 243.24 72.36 243.24ZM84.8569 243.16C83.7102 243.16 82.6902 242.92 81.7969 242.44C80.9169 241.96 80.2169 241.307 79.6969 240.48C79.1902 239.64 78.9369 238.687 78.9369 237.62C78.9369 236.54 79.1902 235.587 79.6969 234.76C80.2169 233.92 80.9169 233.267 81.7969 232.8C82.6902 232.32 83.7102 232.08 84.8569 232.08C85.9902 232.08 87.0035 232.32 87.8969 232.8C88.7902 233.267 89.4902 233.913 89.9969 234.74C90.5035 235.567 90.7569 236.527 90.7569 237.62C90.7569 238.687 90.5035 239.64 89.9969 240.48C89.4902 241.307 88.7902 241.96 87.8969 242.44C87.0035 242.92 85.9902 243.16 84.8569 243.16ZM84.8569 240.6C85.3769 240.6 85.8435 240.48 86.2569 240.24C86.6702 240 86.9969 239.66 87.2369 239.22C87.4769 238.767 87.5969 238.233 87.5969 237.62C87.5969 236.993 87.4769 236.46 87.2369 236.02C86.9969 235.58 86.6702 235.24 86.2569 235C85.8435 234.76 85.3769 234.64 84.8569 234.64C84.3369 234.64 83.8702 234.76 83.4569 235C83.0435 235.24 82.7102 235.58 82.4569 236.02C82.2169 236.46 82.0969 236.993 82.0969 237.62C82.0969 238.233 82.2169 238.767 82.4569 239.22C82.7102 239.66 83.0435 240 83.4569 240.24C83.8702 240.48 84.3369 240.6 84.8569 240.6ZM106.622 232.08C107.476 232.08 108.229 232.253 108.882 232.6C109.549 232.933 110.069 233.453 110.442 234.16C110.829 234.853 111.022 235.747 111.022 236.84V243H107.902V237.32C107.902 236.453 107.722 235.813 107.362 235.4C107.002 234.987 106.496 234.78 105.842 234.78C105.389 234.78 104.982 234.887 104.622 235.1C104.262 235.3 103.982 235.607 103.782 236.02C103.582 236.433 103.482 236.96 103.482 237.6V243H100.362V237.32C100.362 236.453 100.182 235.813 99.8223 235.4C99.4757 234.987 98.9757 234.78 98.3223 234.78C97.869 234.78 97.4623 234.887 97.1023 235.1C96.7423 235.3 96.4623 235.607 96.2623 236.02C96.0623 236.433 95.9623 236.96 95.9623 237.6V243H92.8423V232.24H95.8223V235.18L95.2623 234.32C95.6357 233.587 96.1623 233.033 96.8423 232.66C97.5357 232.273 98.3223 232.08 99.2023 232.08C100.189 232.08 101.049 232.333 101.782 232.84C102.529 233.333 103.022 234.093 103.262 235.12L102.162 234.82C102.522 233.98 103.096 233.313 103.882 232.82C104.682 232.327 105.596 232.08 106.622 232.08ZM120.179 243.16C119.272 243.16 118.479 242.96 117.799 242.56C117.119 242.16 116.586 241.553 116.199 240.74C115.826 239.913 115.639 238.873 115.639 237.62C115.639 236.353 115.819 235.313 116.179 234.5C116.539 233.687 117.059 233.08 117.739 232.68C118.419 232.28 119.232 232.08 120.179 232.08C121.192 232.08 122.099 232.313 122.899 232.78C123.712 233.233 124.352 233.873 124.819 234.7C125.299 235.527 125.539 236.5 125.539 237.62C125.539 238.753 125.299 239.733 124.819 240.56C124.352 241.387 123.712 242.027 122.899 242.48C122.099 242.933 121.192 243.16 120.179 243.16ZM113.819 246.88V232.24H116.799V234.44L116.739 237.64L116.939 240.82V246.88H113.819ZM119.639 240.6C120.159 240.6 120.619 240.48 121.019 240.24C121.432 240 121.759 239.66 121.999 239.22C122.252 238.767 122.379 238.233 122.379 237.62C122.379 236.993 122.252 236.46 121.999 236.02C121.759 235.58 121.432 235.24 121.019 235C120.619 234.76 120.159 234.64 119.639 234.64C119.119 234.64 118.652 234.76 118.239 235C117.826 235.24 117.499 235.58 117.259 236.02C117.019 236.46 116.899 236.993 116.899 237.62C116.899 238.233 117.019 238.767 117.259 239.22C117.499 239.66 117.826 240 118.239 240.24C118.652 240.48 119.119 240.6 119.639 240.6ZM132.968 243.16C131.741 243.16 130.661 242.92 129.728 242.44C128.808 241.96 128.094 241.307 127.588 240.48C127.081 239.64 126.828 238.687 126.828 237.62C126.828 236.54 127.074 235.587 127.568 234.76C128.074 233.92 128.761 233.267 129.628 232.8C130.494 232.32 131.474 232.08 132.568 232.08C133.621 232.08 134.568 232.307 135.408 232.76C136.261 233.2 136.934 233.84 137.428 234.68C137.921 235.507 138.168 236.5 138.168 237.66C138.168 237.78 138.161 237.92 138.148 238.08C138.134 238.227 138.121 238.367 138.108 238.5H129.368V236.68H136.467L135.268 237.22C135.268 236.66 135.154 236.173 134.928 235.76C134.701 235.347 134.388 235.027 133.988 234.8C133.588 234.56 133.121 234.44 132.588 234.44C132.054 234.44 131.581 234.56 131.168 234.8C130.768 235.027 130.454 235.353 130.228 235.78C130.001 236.193 129.888 236.687 129.888 237.26V237.74C129.888 238.327 130.014 238.847 130.268 239.3C130.534 239.74 130.901 240.08 131.368 240.32C131.848 240.547 132.408 240.66 133.048 240.66C133.621 240.66 134.121 240.573 134.548 240.4C134.988 240.227 135.388 239.967 135.748 239.62L137.408 241.42C136.914 241.98 136.294 242.413 135.548 242.72C134.801 243.013 133.941 243.16 132.968 243.16ZM144.645 243.16C143.378 243.16 142.391 242.84 141.685 242.2C140.978 241.547 140.625 240.58 140.625 239.3V229.86H143.745V239.26C143.745 239.713 143.865 240.067 144.105 240.32C144.345 240.56 144.671 240.68 145.085 240.68C145.578 240.68 145.998 240.547 146.345 240.28L147.185 242.48C146.865 242.707 146.478 242.88 146.025 243C145.585 243.107 145.125 243.16 144.645 243.16ZM138.965 234.88V232.48H146.425V234.88H138.965ZM148.936 243V232.24H152.056V243H148.936ZM150.496 230.74C149.923 230.74 149.456 230.573 149.096 230.24C148.736 229.907 148.556 229.493 148.556 229C148.556 228.507 148.736 228.093 149.096 227.76C149.456 227.427 149.923 227.26 150.496 227.26C151.069 227.26 151.536 227.42 151.896 227.74C152.256 228.047 152.436 228.447 152.436 228.94C152.436 229.46 152.256 229.893 151.896 230.24C151.549 230.573 151.083 230.74 150.496 230.74ZM159.352 243.16C158.085 243.16 157.098 242.84 156.392 242.2C155.685 241.547 155.332 240.58 155.332 239.3V229.86H158.452V239.26C158.452 239.713 158.572 240.067 158.812 240.32C159.052 240.56 159.378 240.68 159.792 240.68C160.285 240.68 160.705 240.547 161.052 240.28L161.892 242.48C161.572 242.707 161.185 242.88 160.732 243C160.292 243.107 159.832 243.16 159.352 243.16ZM153.672 234.88V232.48H161.132V234.88H153.672ZM163.643 243V232.24H166.763V243H163.643ZM165.203 230.74C164.63 230.74 164.163 230.573 163.803 230.24C163.443 229.907 163.263 229.493 163.263 229C163.263 228.507 163.443 228.093 163.803 227.76C164.163 227.427 164.63 227.26 165.203 227.26C165.776 227.26 166.243 227.42 166.603 227.74C166.963 228.047 167.143 228.447 167.143 228.94C167.143 229.46 166.963 229.893 166.603 230.24C166.256 230.573 165.79 230.74 165.203 230.74ZM172.579 243L168.059 232.24H171.279L175.039 241.5H173.439L177.339 232.24H180.339L175.799 243H172.579ZM186.659 243.16C185.432 243.16 184.352 242.92 183.419 242.44C182.499 241.96 181.786 241.307 181.279 240.48C180.772 239.64 180.519 238.687 180.519 237.62C180.519 236.54 180.766 235.587 181.259 234.76C181.766 233.92 182.452 233.267 183.319 232.8C184.186 232.32 185.166 232.08 186.259 232.08C187.312 232.08 188.259 232.307 189.099 232.76C189.952 233.2 190.626 233.84 191.119 234.68C191.612 235.507 191.859 236.5 191.859 237.66C191.859 237.78 191.852 237.92 191.839 238.08C191.826 238.227 191.812 238.367 191.799 238.5H183.059V236.68H190.159L188.959 237.22C188.959 236.66 188.846 236.173 188.619 235.76C188.392 235.347 188.079 235.027 187.679 234.8C187.279 234.56 186.812 234.44 186.279 234.44C185.746 234.44 185.272 234.56 184.859 234.8C184.459 235.027 184.146 235.353 183.919 235.78C183.692 236.193 183.579 236.687 183.579 237.26V237.74C183.579 238.327 183.706 238.847 183.959 239.3C184.226 239.74 184.592 240.08 185.059 240.32C185.539 240.547 186.099 240.66 186.739 240.66C187.312 240.66 187.812 240.573 188.239 240.4C188.679 240.227 189.079 239.967 189.439 239.62L191.099 241.42C190.606 241.98 189.986 242.413 189.239 242.72C188.492 243.013 187.632 243.16 186.659 243.16ZM199.6 243V232.24H202.58V235.28L202.16 234.4C202.48 233.64 202.993 233.067 203.7 232.68C204.407 232.28 205.267 232.08 206.28 232.08V234.96C206.147 234.947 206.027 234.94 205.92 234.94C205.813 234.927 205.7 234.92 205.58 234.92C204.727 234.92 204.033 235.167 203.5 235.66C202.98 236.14 202.72 236.893 202.72 237.92V243H199.6ZM214.032 243V240.9L213.832 240.44V236.68C213.832 236.013 213.626 235.493 213.212 235.12C212.812 234.747 212.192 234.56 211.352 234.56C210.779 234.56 210.212 234.653 209.652 234.84C209.106 235.013 208.639 235.253 208.252 235.56L207.132 233.38C207.719 232.967 208.426 232.647 209.252 232.42C210.079 232.193 210.919 232.08 211.772 232.08C213.412 232.08 214.686 232.467 215.592 233.24C216.499 234.013 216.952 235.22 216.952 236.86V243H214.032ZM210.752 243.16C209.912 243.16 209.192 243.02 208.592 242.74C207.992 242.447 207.532 242.053 207.212 241.56C206.892 241.067 206.732 240.513 206.732 239.9C206.732 239.26 206.886 238.7 207.192 238.22C207.512 237.74 208.012 237.367 208.692 237.1C209.372 236.82 210.259 236.68 211.352 236.68H214.212V238.5H211.692C210.959 238.5 210.452 238.62 210.172 238.86C209.906 239.1 209.772 239.4 209.772 239.76C209.772 240.16 209.926 240.48 210.232 240.72C210.552 240.947 210.986 241.06 211.532 241.06C212.052 241.06 212.519 240.94 212.932 240.7C213.346 240.447 213.646 240.08 213.832 239.6L214.312 241.04C214.086 241.733 213.672 242.26 213.072 242.62C212.472 242.98 211.699 243.16 210.752 243.16ZM224.176 243.16C222.909 243.16 221.923 242.84 221.216 242.2C220.509 241.547 220.156 240.58 220.156 239.3V229.86H223.276V239.26C223.276 239.713 223.396 240.067 223.636 240.32C223.876 240.56 224.203 240.68 224.616 240.68C225.109 240.68 225.529 240.547 225.876 240.28L226.716 242.48C226.396 242.707 226.009 242.88 225.556 243C225.116 243.107 224.656 243.16 224.176 243.16ZM218.496 234.88V232.48H225.956V234.88H218.496ZM233.475 243.16C232.249 243.16 231.169 242.92 230.235 242.44C229.315 241.96 228.602 241.307 228.095 240.48C227.589 239.64 227.335 238.687 227.335 237.62C227.335 236.54 227.582 235.587 228.075 234.76C228.582 233.92 229.269 233.267 230.135 232.8C231.002 232.32 231.982 232.08 233.075 232.08C234.129 232.08 235.075 232.307 235.915 232.76C236.769 233.2 237.442 233.84 237.935 234.68C238.429 235.507 238.675 236.5 238.675 237.66C238.675 237.78 238.669 237.92 238.655 238.08C238.642 238.227 238.629 238.367 238.615 238.5H229.875V236.68H236.975L235.775 237.22C235.775 236.66 235.662 236.173 235.435 235.76C235.209 235.347 234.895 235.027 234.495 234.8C234.095 234.56 233.629 234.44 233.095 234.44C232.562 234.44 232.089 234.56 231.675 234.8C231.275 235.027 230.962 235.353 230.735 235.78C230.509 236.193 230.395 236.687 230.395 237.26V237.74C230.395 238.327 230.522 238.847 230.775 239.3C231.042 239.74 231.409 240.08 231.875 240.32C232.355 240.547 232.915 240.66 233.555 240.66C234.129 240.66 234.629 240.573 235.055 240.4C235.495 240.227 235.895 239.967 236.255 239.62L237.915 241.42C237.422 241.98 236.802 242.413 236.055 242.72C235.309 243.013 234.449 243.16 233.475 243.16ZM244.373 243.16C243.453 243.16 242.566 243.053 241.713 242.84C240.873 242.613 240.206 242.333 239.713 242L240.753 239.76C241.246 240.067 241.826 240.32 242.493 240.52C243.173 240.707 243.839 240.8 244.493 240.8C245.213 240.8 245.719 240.713 246.013 240.54C246.319 240.367 246.473 240.127 246.473 239.82C246.473 239.567 246.353 239.38 246.113 239.26C245.886 239.127 245.579 239.027 245.192 238.96C244.806 238.893 244.379 238.827 243.913 238.76C243.459 238.693 242.999 238.607 242.533 238.5C242.066 238.38 241.639 238.207 241.253 237.98C240.866 237.753 240.553 237.447 240.313 237.06C240.086 236.673 239.972 236.173 239.972 235.56C239.972 234.88 240.166 234.28 240.553 233.76C240.953 233.24 241.526 232.833 242.273 232.54C243.019 232.233 243.913 232.08 244.953 232.08C245.686 232.08 246.433 232.16 247.193 232.32C247.953 232.48 248.586 232.713 249.093 233.02L248.053 235.24C247.533 234.933 247.006 234.727 246.473 234.62C245.953 234.5 245.446 234.44 244.953 234.44C244.259 234.44 243.753 234.533 243.433 234.72C243.113 234.907 242.953 235.147 242.953 235.44C242.953 235.707 243.066 235.907 243.293 236.04C243.533 236.173 243.846 236.28 244.233 236.36C244.619 236.44 245.039 236.513 245.493 236.58C245.959 236.633 246.426 236.72 246.893 236.84C247.359 236.96 247.779 237.133 248.153 237.36C248.539 237.573 248.853 237.873 249.093 238.26C249.333 238.633 249.453 239.127 249.453 239.74C249.453 240.407 249.253 241 248.853 241.52C248.453 242.027 247.873 242.427 247.113 242.72C246.366 243.013 245.453 243.16 244.373 243.16Z" fill="#002244"/>
</svg>
